<svg viewBox="0 0 300 300" xmlns="http://www.w3.org/2000/svg">
  <defs>
    <linearGradient id="p" x1="0" y1="0" x2="1" y2="1">
      <stop offset="0%" stop-color="#7C5CFF"/>
      <stop offset="100%" stop-color="#5B34F2"/>
    </linearGradient>
  </defs>
  <rect width="300" height="300" rx="64" fill="#0B0B12"/>
  <g transform="translate(8 0)">
    <path d="M150 30 C159 30 167 36 171 46 L269 256 C277 274 265 288 247 288 L200 288 C188 288 180 282 176 272 L150 212 L124 272 C120 282 112 288 100 288 L53 288 C35 288 23 274 31 256 L129 46 C133 36 141 30 150 30 Z" fill="url(#p)" transform="translate(-9 -6) scale(0.96)"/>
    <path d="M120 116 H180 C188.8 116 196 123.2 196 132 V166 C196 174.8 188.8 182 180 182 H146 L128 206 L126 182 H120 C111.2 182 104 174.8 104 166 V132 C104 123.2 111.2 116 120 116 Z" fill="none" stroke="#F5A623" stroke-width="9" stroke-linejoin="round" transform="translate(-9 -6) scale(0.96)"/>
    <g fill="#F5A623" transform="translate(-9 -6) scale(0.96)">
      <circle cx="130" cy="149" r="6"/>
      <circle cx="150" cy="149" r="6"/>
      <circle cx="170" cy="149" r="6"/>
      <circle cx="246" cy="46" r="17"/>
      <path d="M246 72 C240 72 235 77 234 86 L224 168 C221 186 232 198 246 198 C260 198 271 186 268 168 L258 86 C257 77 252 72 246 72 Z"/>
    </g>
  </g>
</svg>
